<svg id="Layer_1" data-name="Layer 1" xmlns="http://www.w3.org/2000/svg" viewBox="0 0 215.37 52.97"><defs><style>.cls-1{fill:#80eec0;fill-rule:evenodd;}.cls-2{fill:#00dc82;}.cls-3{font-size:34px;font-family:MicrosoftNewTaiLue-Bold, Microsoft New Tai Lue;font-weight:700;}</style></defs><path class="cls-1" d="M29.75,14.26a4.36,4.36,0,0,0-7.53,0L4,45.64a4.31,4.31,0,0,0,3.76,6.48H22a4.17,4.17,0,0,1-.88-5.27L34.92,23.16Z" transform="translate(-3.38 -12.1)"/><path class="cls-2" d="M41.32,21.14a3.63,3.63,0,0,1,6.23,0L62.66,46.82a3.54,3.54,0,0,1-3.12,5.3H29.33a3.54,3.54,0,0,1-3.12-5.3Z" transform="translate(-3.38 -12.1)"/><text class="cls-3" transform="translate(64.43 40.02)">Webshop</text></svg>